<svg width="592" height="312" viewBox="0 0 592 312" fill="none" xmlns="http://www.w3.org/2000/svg">
<g clip-path="url(#clip0_153_2262)">
<path d="M-14.5718 0C-10.2348 4.8497 -5.91592 9.32408 -1.6169 13.4484C122.309 132.338 229.697 -39.6856 274.877 101.618C321.625 247.823 345.319 311.59 591.222 323" stroke="black" stroke-width="6"/>
<path d="M-28.1435 37C96.47 176.5 205.661 -5.99999 250.695 135C295.728 276 318.553 337.496 555.442 348.5" stroke="black" stroke-width="6"/>
<path d="M-51.5857 65C73.0278 204.5 182.219 22 227.252 163C272.286 304 295.111 365.496 532 376.5" stroke="black" stroke-width="6"/>
<path d="M-81.1968 97C43.4167 236.5 152.608 54 197.641 195C242.675 336 265.5 397.496 502.389 408.5" stroke="black" stroke-width="6"/>
<path d="M-112.042 134C12.5718 273.5 121.763 91 166.796 232C211.83 373 234.655 434.496 471.544 445.5" stroke="black" stroke-width="6"/>
<path d="M-146.588 172C-21.9745 311.5 87.2165 129 132.25 270C177.284 411 200.109 472.496 436.998 483.5" stroke="black" stroke-width="6"/>
<path d="M-182.368 218C-57.7547 357.5 51.4364 175 96.47 316C141.504 457 164.329 518.496 401.218 529.5" stroke="black" stroke-width="6"/>
</g>
<defs>
<clipPath id="clip0_153_2262">
<rect width="590.989" height="317" fill="white" transform="translate(0.233797)"/>
</clipPath>
</defs>
</svg>
