<svg width="41" height="42" viewBox="0 0 41 42" fill="none" xmlns="http://www.w3.org/2000/svg">
<path d="M26.0794 3.64767C26.9894 3.02156 27.2195 1.77632 26.5934 0.866335C25.9673 -0.0436459 24.722 -0.273772 23.8121 0.352334L24.9457 2L26.0794 3.64767ZM16.2118 24.7986C16.3707 25.8916 17.3856 26.649 18.4787 26.4901C19.5718 26.3312 20.3291 25.3163 20.1702 24.2232L18.191 24.5109L16.2118 24.7986ZM18.6132 12.8924L20.5496 13.3927L18.6132 12.8924ZM36.085 17.7023C36.3352 18.7782 37.4102 19.4475 38.486 19.1973C39.5619 18.9471 40.2312 17.8721 39.981 16.7963L38.033 17.2493L36.085 17.7023ZM38.033 21.9693L40.0283 21.8329C39.9548 20.7574 39.0421 19.9337 37.9647 19.9705C36.8873 20.0073 36.033 20.8913 36.033 21.9693H38.033ZM20.5011 30.8554C21.5988 30.9785 22.5884 30.1885 22.7116 29.0908C22.8347 27.9931 22.0447 27.0034 20.947 26.8803L20.724 28.8678L20.5011 30.8554ZM24.9457 2L23.8121 0.352334C22.4151 1.3135 20.975 3.07792 19.755 5.10097C18.5062 7.1719 17.3698 9.70996 16.6768 12.392L18.6132 12.8924L20.5496 13.3927C21.1361 11.1227 22.1106 8.94073 23.1804 7.16657C24.2792 5.34454 25.3656 4.13881 26.0794 3.64767L24.9457 2ZM18.6132 12.8924L16.6768 12.392C15.4378 17.187 15.7718 21.7709 16.2118 24.7986L18.191 24.5109L20.1702 24.2232C19.7659 21.4416 19.4996 17.4563 20.5496 13.3927L18.6132 12.8924ZM38.033 17.2493L39.981 16.7963C39.7962 16.0017 39.577 14.8737 39.2863 13.8797C38.9857 12.8519 38.5409 11.6968 37.7571 10.7017C36.9357 9.65892 35.7954 8.86076 34.2656 8.50936C32.7905 8.17054 31.0774 8.27455 29.0991 8.77496L29.5896 10.7139L30.08 12.6528C31.6901 12.2455 32.7211 12.2588 33.3701 12.4078C33.9643 12.5443 34.328 12.8127 34.6148 13.1768C34.9392 13.5887 35.2068 14.1809 35.4471 15.0026C35.6973 15.858 35.8476 16.6815 36.085 17.7023L38.033 17.2493ZM29.5896 10.7139L29.0991 8.77496C26.5887 9.40997 24.9095 11.1859 23.9304 13.2489C22.9644 15.2843 22.619 17.6958 22.7373 19.9848C22.8557 22.2759 23.447 24.6117 24.5265 26.5096C25.6004 28.3974 27.2972 30.0672 29.6727 30.4758L30.0117 28.5047L30.3508 26.5337C29.56 26.3977 28.7238 25.7983 28.0034 24.5318C27.2887 23.2754 26.8246 21.572 26.7319 19.7784C26.6392 17.9829 26.9269 16.2643 27.5441 14.9639C28.1481 13.6912 29.002 12.9255 30.08 12.6528L29.5896 10.7139ZM30.0117 28.5047L29.6727 30.4758C33.5598 31.1444 36.3196 29.7453 38.001 27.6796C39.5554 25.7697 40.1329 23.3624 40.0283 21.8329L38.033 21.9693L36.0376 22.1058C36.0737 22.6337 35.8069 24.0387 34.8987 25.1545C34.1174 26.1144 32.7962 26.9543 30.3508 26.5337L30.0117 28.5047ZM38.033 21.9693H36.033C36.033 25.4891 35.7876 29.0775 33.8573 31.857C32.029 34.4895 28.3271 36.861 20.2588 37.0345L20.3018 39.034L20.3448 41.0336C29.1634 40.844 34.3271 38.1928 37.1427 34.1387C39.8562 30.2315 40.033 25.4691 40.033 21.9693H38.033ZM20.3018 39.034L20.2588 37.0345C16.1745 37.1223 13.9921 36.4604 12.9983 35.7886C12.5408 35.4794 12.4035 35.2171 12.3569 35.0733C12.3095 34.927 12.2922 34.7058 12.416 34.3697C12.6878 33.6314 13.563 32.6156 15.0997 31.8274C16.5872 31.0645 18.4896 30.6297 20.5011 30.8554L20.724 28.8678L20.947 26.8803C18.1035 26.5613 15.4149 27.1703 13.2743 28.2682C11.183 29.3409 9.39322 31.0027 8.66237 32.9876C8.28481 34.013 8.18181 35.1647 8.5516 36.3061C8.92223 37.4501 9.70508 38.3906 10.7581 39.1025C12.7855 40.473 15.9858 41.1273 20.3448 41.0336L20.3018 39.034Z" fill="#00DC72"/>
<path d="M3.83743 9.2619C3.83743 9.2619 2.758 14.8553 2.99309 18.7019C3.23244 22.6183 5.10391 25.9635 5.5261 27.0528M11.4365 24.8743C11.4365 24.8743 10.17 19.4281 11.0143 14.345" stroke="#00DC72" stroke-width="4" stroke-linecap="round"/>
</svg>
