<svg width="139" height="56" viewBox="0 0 139 56" fill="none" xmlns="http://www.w3.org/2000/svg">
<path d="M20.5 18.7734C20.5 18.7734 19.2265 17.06 15.9185 17.0013C10.6262 16.9075 7.36327 21.7285 6.75568 26.3048C6.11148 31.1568 6.31419 36.1139 11.8462 36.9373C14.9444 37.3984 19.4819 35.1652 19.4819 35.1652" stroke="black" stroke-width="5" stroke-linecap="round"/>
<path d="M85.667 31.5389C89.9539 27.1514 86.2028 16 79.7726 16C73.3424 16 71.7344 20.5703 72.8061 26.5116C73.8778 32.4529 80.3084 37.0232 85.667 31.5389Z" stroke="black" stroke-width="5" stroke-linecap="round"/>
<path d="M134.448 21.4679C124.17 8.40525 110.294 29.1252 117.489 35.4313C124.683 41.7374 133.934 35.4313 134.448 27.3235C134.962 19.2157 131.536 9.30609 129.309 3" stroke="black" stroke-width="5" stroke-linecap="round"/>
<path d="M105.608 32.5384C111.443 29.1025 110.964 16.6951 104.243 15.0819C97.5219 13.4686 94.0667 18.047 93.7172 24.1425C93.3677 30.2379 98.3146 36.8331 105.608 32.5384Z" stroke="black" stroke-width="5" stroke-linecap="round"/>
<path d="M51.389 8.01604C52.5025 7.19956 52.7432 5.63506 51.9267 4.52163C51.1102 3.4082 49.5457 3.16748 48.4323 3.98396L49.9107 6L51.389 8.01604ZM39.3921 34.9C39.5787 36.2681 40.8389 37.2258 42.207 37.0393C43.575 36.8527 44.5328 35.5924 44.3462 34.2244L41.8692 34.5622L39.3921 34.9ZM42.3717 19.8204L44.8013 20.4095L42.3717 19.8204ZM63.0486 25.8816C63.343 27.2305 64.6752 28.0855 66.0241 27.7911C67.3731 27.4968 68.228 26.1646 67.9337 24.8156L65.4912 25.3486L63.0486 25.8816ZM65.4912 31.3374L67.986 31.1773C67.8996 29.8306 66.7599 28.7955 65.4111 28.8387C64.0622 28.882 62.9912 29.9879 62.9912 31.3374H65.4912ZM44.5879 42.5727C45.9589 42.7366 47.2031 41.7581 47.367 40.3871C47.531 39.0162 46.5524 37.7719 45.1815 37.608L44.8847 40.0904L44.5879 42.5727ZM49.9107 6L48.4323 3.98396C46.755 5.21396 45.0408 7.45721 43.5942 10.0139C42.1105 12.6361 40.763 15.8454 39.9421 19.2314L42.3717 19.8204L44.8013 20.4095C45.5037 17.5122 46.6692 14.7326 47.9459 12.4761C49.2598 10.1541 50.5535 8.62877 51.389 8.01604L49.9107 6ZM42.3717 19.8204L39.9421 19.2314C38.475 25.2826 38.8698 31.0703 39.3921 34.9L41.8692 34.5622L44.3462 34.2244C43.8633 30.6832 43.5434 25.5981 44.8013 20.4095L42.3717 19.8204ZM65.4912 25.3486L67.9337 24.8156C67.7116 23.7979 67.4534 22.3795 67.1088 21.1239C66.7544 19.8322 66.2303 18.3803 65.3028 17.1252C64.3288 15.8074 62.9513 14.7653 61.0675 14.3041C59.2548 13.8604 57.167 14.0013 54.7884 14.6425L55.4392 17.0563L56.0899 19.4702C57.9834 18.9597 59.1625 18.9854 59.8785 19.1607C60.5234 19.3186 60.9364 19.6297 61.2817 20.097C61.6735 20.6271 61.9976 21.3922 62.2871 22.4471C62.5865 23.5381 62.7681 24.5958 63.0486 25.8816L65.4912 25.3486ZM55.4392 17.0563L54.7884 14.6425C51.7158 15.4709 49.7169 17.7664 48.5692 20.3438C47.4301 22.9018 47.0227 25.9314 47.1623 28.8096C47.3019 31.6901 47.9995 34.6293 49.2757 37.0206C50.535 39.38 52.565 41.5523 55.491 42.0887L55.9418 39.6297L56.3926 37.1707C55.5491 37.016 54.5635 36.309 53.6868 34.6663C52.827 33.0554 52.268 30.8696 52.1564 28.5674C52.0447 26.263 52.3911 24.0523 53.1368 22.3778C53.8738 20.7227 54.8905 19.7935 56.0899 19.4702L55.4392 17.0563ZM55.9418 39.6297L55.491 42.0887C60.2409 42.9594 63.5916 41.1192 65.5933 38.4981C67.4386 36.0818 68.107 33.0627 67.986 31.1773L65.4912 31.3374L62.9963 31.4975C63.0428 32.2227 62.706 34.0407 61.6195 35.4634C60.6894 36.6814 59.1817 37.682 56.3926 37.1707L55.9418 39.6297ZM65.4912 31.3374H62.9912C62.9912 35.8114 62.6983 40.4096 60.381 43.9657C58.2078 47.3007 53.8485 50.2718 44.3248 50.4901L44.3821 52.9894L44.4394 55.4888C55.0195 55.2463 61.2148 51.8447 64.5701 46.6955C67.7814 41.7674 67.9912 35.77 67.9912 31.3374H65.4912ZM44.3821 52.9894L44.3248 50.4901C39.491 50.6008 36.953 49.7654 35.8151 48.9456C35.2933 48.5696 35.117 48.2382 35.0504 48.019C34.9805 47.7893 34.9658 47.4643 35.1225 47.0107C35.4586 46.0379 36.51 44.7605 38.3014 43.7812C40.0419 42.8299 42.2552 42.2938 44.5879 42.5727L44.8847 40.0904L45.1815 37.608C41.7344 37.1959 38.482 37.9843 35.9032 39.3939C33.3755 40.7756 31.2542 42.8958 30.3966 45.378C29.9565 46.652 29.8396 48.0689 30.2665 49.4732C30.6966 50.888 31.6158 52.0826 32.8923 53.0023C35.3511 54.7738 39.2212 55.6083 44.4394 55.4888L44.3821 52.9894Z" fill="#00DC72"/>
<path d="M24.5356 15C24.5356 15 23.2622 22.2312 23.5395 27.2041C23.8219 32.2671 26.0296 36.5918 26.5277 38M33.5 35.1837C33.5 35.1837 32.0059 28.1429 33.002 21.5714" stroke="#00DC72" stroke-width="5" stroke-linecap="round"/>
<path d="M75.7013 45C75.2837 45 74.9079 44.9325 74.5738 44.7975C74.2397 44.6568 73.9773 44.4599 73.7863 44.2068C73.5955 43.9536 73.5 43.6582 73.5 43.3207H74.5917C74.6156 43.5738 74.72 43.782 74.9049 43.9451C75.0958 44.1083 75.3613 44.1899 75.7013 44.1899C76.0533 44.1899 76.3277 44.1111 76.5246 43.9536C76.7214 43.7904 76.8199 43.5823 76.8199 43.3291C76.8199 43.1322 76.7572 42.9719 76.632 42.8481C76.5126 42.7243 76.3605 42.6287 76.1756 42.5612C75.9966 42.4937 75.7461 42.4205 75.4239 42.3418C75.0183 42.2405 74.6872 42.1392 74.4306 42.038C74.1801 41.9311 73.9653 41.7679 73.7863 41.5485C73.6074 41.3291 73.5179 41.0366 73.5179 40.6709C73.5179 40.3333 73.6074 40.038 73.7863 39.7848C73.9653 39.5316 74.2159 39.3376 74.538 39.2025C74.8602 39.0675 75.233 39 75.6566 39C76.2591 39 76.7513 39.1435 77.1331 39.4304C77.5208 39.7117 77.7356 40.0999 77.7774 40.5949H76.6498C76.632 40.3812 76.5246 40.1983 76.3277 40.0464C76.1308 39.8945 75.8713 39.8186 75.5492 39.8186C75.2569 39.8186 75.0183 39.8889 74.8333 40.0295C74.6484 40.1702 74.5559 40.3727 74.5559 40.6371C74.5559 40.8172 74.6126 40.9662 74.7259 41.0844C74.8452 41.1969 74.9944 41.2869 75.1734 41.3544C75.3523 41.4219 75.5969 41.4951 75.9071 41.5738C76.3188 41.6807 76.6528 41.7876 76.9094 41.8945C77.1718 42.0014 77.3926 42.1674 77.5715 42.3924C77.7565 42.6118 77.8489 42.9072 77.8489 43.2785C77.8489 43.5767 77.7624 43.8579 77.5894 44.1224C77.4224 44.3868 77.1748 44.6006 76.8467 44.7637C76.5246 44.9212 76.1428 45 75.7013 45Z" fill="black"/>
<path d="M84.7707 39.0759V39.8608H83.1152V44.9409H82.0951V39.8608H80.4307V39.0759H84.7707Z" fill="black"/>
<path d="M88.5152 39.0759V42.8143C88.5152 43.2588 88.6375 43.5935 88.8821 43.8186C89.1326 44.0436 89.4786 44.1561 89.9201 44.1561C90.3675 44.1561 90.7135 44.0436 90.9581 43.8186C91.2087 43.5935 91.334 43.2588 91.334 42.8143V39.0759H92.3541V42.7975C92.3541 43.2757 92.2437 43.6807 92.023 44.0127C91.8023 44.3446 91.507 44.5921 91.1371 44.7553C90.7672 44.9184 90.3586 45 89.9112 45C89.4637 45 89.0551 44.9184 88.6852 44.7553C88.3213 44.5921 88.032 44.3446 87.8172 44.0127C87.6025 43.6807 87.4951 43.2757 87.4951 42.7975V39.0759H88.5152Z" fill="black"/>
<path d="M97.4138 39.0759C98.076 39.0759 98.6546 39.1969 99.1498 39.4388C99.6509 39.6751 100.036 40.0183 100.304 40.4684C100.579 40.9128 100.716 41.4332 100.716 42.0295C100.716 42.6259 100.579 43.1435 100.304 43.5823C100.036 44.0211 99.6509 44.3586 99.1498 44.5949C98.6546 44.8256 98.076 44.9409 97.4138 44.9409H95.3825V39.0759H97.4138ZM97.4138 44.1561C98.1416 44.1561 98.6994 43.9705 99.0871 43.5992C99.4749 43.2278 99.6688 42.7046 99.6688 42.0295C99.6688 41.3488 99.4749 40.8172 99.0871 40.4346C98.6994 40.052 98.1416 39.8608 97.4138 39.8608H96.4026V44.1561H97.4138Z" fill="black"/>
<path d="M104.447 39.0759V44.9409H103.427V39.0759H104.447Z" fill="black"/>
<path d="M110.323 45C109.745 45 109.211 44.8734 108.722 44.6203C108.238 44.3615 107.854 44.0042 107.567 43.5485C107.287 43.0872 107.147 42.5696 107.147 41.9958C107.147 41.4219 107.287 40.9072 107.567 40.4515C107.854 39.9958 108.238 39.6414 108.722 39.3882C109.211 39.1294 109.745 39 110.323 39C110.908 39 111.442 39.1294 111.925 39.3882C112.414 39.6414 112.799 39.9958 113.079 40.4515C113.36 40.9072 113.5 41.4219 113.5 41.9958C113.5 42.5696 113.36 43.0872 113.079 43.5485C112.799 44.0042 112.414 44.3615 111.925 44.6203C111.442 44.8734 110.908 45 110.323 45ZM110.323 44.1646C110.735 44.1646 111.102 44.0774 111.424 43.903C111.746 43.7229 111.997 43.4698 112.176 43.1435C112.361 42.8115 112.453 42.429 112.453 41.9958C112.453 41.5626 112.361 41.1828 112.176 40.8565C111.997 40.5302 111.746 40.2799 111.424 40.1055C111.102 39.9311 110.735 39.8439 110.323 39.8439C109.912 39.8439 109.545 39.9311 109.223 40.1055C108.901 40.2799 108.647 40.5302 108.462 40.8565C108.283 41.1828 108.194 41.5626 108.194 41.9958C108.194 42.429 108.283 42.8115 108.462 43.1435C108.647 43.4698 108.901 43.7229 109.223 43.903C109.545 44.0774 109.912 44.1646 110.323 44.1646Z" fill="black"/>
</svg>
