<svg width="89" height="94" viewBox="0 0 89 94" fill="none" xmlns="http://www.w3.org/2000/svg">
<path d="M56.7433 8.25334C58.5633 7.00113 59.0236 4.51064 57.7714 2.69068C56.5191 0.870716 54.0287 0.410464 52.2087 1.66268L54.476 4.95801L56.7433 8.25334ZM35.0101 57.2141C35.3279 59.4003 37.3577 60.9149 39.5439 60.5972C41.73 60.2794 43.2447 58.2496 42.9269 56.0634L38.9685 56.6388L35.0101 57.2141ZM39.9376 29.9648L43.8104 30.9655L39.9376 29.9648ZM80.6259 40.8736C81.1263 43.0254 83.2763 44.364 85.428 43.8636C87.5797 43.3632 88.9184 41.2132 88.4179 39.0615L84.5219 39.9676L80.6259 40.8736ZM84.5219 50.8039L88.5126 50.5309C88.3655 48.3799 86.5401 46.7326 84.3854 46.8062C82.2306 46.8798 80.5219 48.6479 80.5219 50.8039H84.5219ZM44.3379 70.6166C46.5333 70.8629 48.5126 69.2828 48.7589 67.0874C49.0052 64.8921 47.4251 62.9127 45.2298 62.6665L44.7838 66.6415L44.3379 70.6166ZM54.476 4.95801L52.2087 1.66268C49.1026 3.79982 45.8487 7.76795 43.0658 12.3828C40.2252 17.0933 37.6401 22.8676 36.0648 28.9641L39.9376 29.9648L43.8104 30.9655C45.1728 25.693 47.4339 20.631 49.9166 16.514C52.457 12.3012 55.0035 9.45044 56.7433 8.25334L54.476 4.95801ZM39.9376 29.9648L36.0648 28.9641C33.2484 39.8643 34.0051 50.2996 35.0101 57.2141L38.9685 56.6388L42.9269 56.0634C41.9934 49.641 41.3719 40.4029 43.8104 30.9655L39.9376 29.9648ZM84.5219 39.9676L88.4179 39.0615C87.9859 37.2039 87.4929 34.6592 86.8315 32.3976C86.1502 30.0684 85.1553 27.4999 83.4238 25.3016C81.6171 23.0079 79.114 21.2538 75.7402 20.4789C72.4759 19.7291 68.6438 19.9505 64.1565 21.0856L65.1374 24.9635L66.1183 28.8413C69.8693 27.8925 72.3372 27.9056 73.9493 28.2759C75.4519 28.621 76.4017 29.3155 77.1392 30.2518C77.9519 31.2836 78.5925 32.7266 79.1531 34.6434C79.7335 36.6277 80.0886 38.5635 80.6259 40.8736L84.5219 39.9676ZM65.1374 24.9635L64.1565 21.0856C58.6049 22.4899 54.8719 26.4176 52.6796 31.037C50.5135 35.6012 49.7289 41.035 49.9967 46.2173C50.2647 51.4035 51.6034 56.6726 54.0279 60.9349C56.4409 65.177 60.2092 68.8523 65.4285 69.7501L66.1066 65.808L66.7847 61.8658C64.7348 61.5133 62.6878 59.9788 60.9816 56.9794C59.2869 54.0001 58.2026 49.9958 57.986 45.8044C57.7692 41.6092 58.4384 37.5613 59.9069 34.4671C61.3491 31.4282 63.4315 29.521 66.1183 28.8413L65.1374 24.9635ZM66.1066 65.808L65.4285 69.7501C74.1394 71.2484 80.2625 68.1191 83.9896 63.54C87.4628 59.2728 88.7426 53.8943 88.5126 50.5309L84.5219 50.8039L80.5312 51.0768C80.6243 52.4369 79.9656 55.8108 77.785 58.4899C75.8582 60.8572 72.6121 62.8682 66.7847 61.8658L66.1066 65.808ZM84.5219 50.8039H80.5219C80.5219 58.8816 79.9687 67.2936 75.4212 73.8416C71.0778 80.0957 62.3627 85.5815 43.7285 85.9821L43.8145 89.9812L43.9005 93.9803C64.0354 93.5474 75.674 87.5023 81.992 78.405C88.1059 69.6015 88.5219 58.8416 88.5219 50.8039H84.5219ZM43.8145 89.9812L43.7285 85.9821C34.3109 86.1846 29.15 84.6662 26.7157 83.0206C25.5772 82.251 25.1664 81.5486 25.0116 81.0705C24.855 80.5873 24.8332 79.942 25.1549 79.0683C25.8469 77.1891 27.9915 74.7613 31.6015 72.9098C35.1129 71.1088 39.5969 70.0847 44.3379 70.6166L44.7838 66.6415L45.2298 62.6665C38.8247 61.9479 32.7684 63.3204 27.9506 65.7914C23.2313 68.2119 19.2576 71.9316 17.6477 76.3041C16.8184 78.5563 16.5997 81.0628 17.401 83.5362C18.204 86.0147 19.9058 88.0734 22.2353 89.6482C26.737 92.6914 33.9336 94.1946 43.9005 93.9803L43.8145 89.9812Z" fill="black"/>
<path d="M6.01534 21.6299C6.01534 21.6299 3.53718 34.4714 4.0769 43.3025C4.6264 52.2937 8.92294 59.9737 9.89222 62.4744M23.4613 57.473C23.4613 57.473 20.5537 44.9696 22.4921 33.2997" stroke="black" stroke-width="8" stroke-linecap="round"/>
</svg>
