<svg width="230" height="72" viewBox="0 0 230 72" fill="none" xmlns="http://www.w3.org/2000/svg">
<g style="mix-blend-mode:luminosity">
<path d="M72.1941 47.7742H76.1701L66.9396 27.2418H63.2024L54 47.7742H57.9198L59.9289 43.0186H70.1569L72.2081 47.7742H72.1941ZM61.2074 40.0269L65.0289 31.052L68.8784 40.0269H61.1933H61.2074ZM89.8824 26V34.0436C88.6601 32.6042 86.8758 31.9269 84.8527 31.9269C80.3288 31.9269 76.9709 35.0597 76.9709 39.9423C76.9709 44.8249 80.3288 47.9859 84.8527 47.9859C86.9882 47.9859 88.8006 47.2521 90.0229 45.7562V47.7742H93.5212V26H89.8684H89.8824ZM85.3023 44.839C82.675 44.839 80.6519 42.9339 80.6519 39.9423C80.6519 36.9506 82.661 35.0455 85.3023 35.0455C87.9436 35.0455 89.9527 36.9506 89.9527 39.9423C89.9527 42.9339 87.9436 44.839 85.3023 44.839ZM109.425 32.0962L104.438 43.7101L99.5906 32.0962H95.7973L102.485 47.7601H106.25L112.938 32.0962H109.439H109.425ZM120.679 31.9269C118.164 31.9269 115.748 32.576 114.076 33.8602L115.509 36.5273C116.675 35.5536 118.487 34.975 120.243 34.975C122.843 34.975 124.121 36.2309 124.121 38.3759V38.6158H120.089C115.354 38.6158 113.612 40.6761 113.612 43.2867C113.612 45.8974 115.86 47.9859 119.429 47.9859C121.761 47.9859 123.461 47.2239 124.332 45.8691V47.7742H127.774V38.5876C127.774 34.0718 125.175 31.9269 120.679 31.9269ZM120.173 45.3047C118.305 45.3047 117.195 44.458 117.195 43.1315C117.195 41.9884 117.869 41.043 120.342 41.043H124.107V42.8634C123.489 44.4721 121.943 45.3047 120.159 45.3047H120.173ZM141.29 31.9269C139.014 31.9269 137.117 32.6889 135.909 34.1283V32.1103H132.438V47.7742H136.091V39.8576C136.091 36.7248 137.847 35.1302 140.447 35.1302C142.779 35.1302 144.156 36.4849 144.156 39.2649V47.7742H147.809V38.7992C147.809 34.0718 145.027 31.941 141.29 31.941V31.9269ZM159.751 47.9718C162.785 47.9718 165.216 46.6453 166.41 44.3028L163.6 42.6658C162.659 44.1616 161.268 44.839 159.722 44.839C157.039 44.839 154.988 42.9904 154.988 39.9423C154.988 36.8942 157.025 35.0455 159.722 35.0455C161.268 35.0455 162.673 35.7229 163.6 37.2187L166.41 35.5818C165.216 33.211 162.785 31.941 159.751 31.941C154.819 31.941 151.307 35.2572 151.307 39.9564C151.307 44.6555 154.805 48 159.751 48V47.9718ZM184 40.0269C184 35.1302 180.67 31.9269 176.118 31.9269C171.566 31.9269 168.054 35.2713 168.054 39.9423C168.054 44.6132 171.44 47.9859 176.666 47.9859C179.35 47.9859 181.541 47.111 182.946 45.4317L180.993 43.1738C179.883 44.3169 178.507 44.8813 176.765 44.8813C174.053 44.8813 172.156 43.4137 171.707 41.1276H183.944C183.972 40.7749 184 40.3374 184 40.0411V40.0269ZM176.104 34.8621C178.507 34.8621 180.221 36.4144 180.516 38.6722H171.665C172.016 36.3861 173.744 34.8621 176.104 34.8621Z" fill="black"/>
<path d="M196.18 47.986C199 47.986 201.407 46.7928 203 44.5749L200.935 42.2447C199.684 43.873 198.139 44.6731 196.345 44.6731C192.794 44.6731 190.209 41.6972 190.209 37.5C190.209 33.3028 192.782 30.3269 196.345 30.3269C198.139 30.3269 199.684 31.113 200.935 32.7132L203 30.4111C201.407 28.1932 199 27 196.204 27C190.929 27 187 31.4078 187 37.5C187 43.5923 190.929 48 196.18 48V47.986Z" fill="#1B8D47"/>
<path d="M230 47L229.971 27H226.766L218.565 40.2555L210.205 27H207V47H210.725V33.9093L217.626 44.706H219.374L226.289 33.7445L226.318 47H230Z" fill="#67BC44"/>
<path fill-rule="evenodd" clip-rule="evenodd" d="M23.653 54H42L39.8693 50.3165C37.969 47.036 34.1798 46 30.3791 46C26.5899 46 22.7892 46 19 46L23.6415 53.9885L23.653 54Z" fill="#67BC44"/>
<path fill-rule="evenodd" clip-rule="evenodd" d="M9.6 37L0 54H7.15224C11.0806 54 15.0209 52.9131 16.991 49.4203L24 37H9.6Z" fill="#1B8D47"/>
<path fill-rule="evenodd" clip-rule="evenodd" d="M17 24.8908L24.3993 37H34L21.7942 17L17 24.8908Z" fill="#67BC44"/>
</g>
</svg>
