<svg width="120" height="120" viewBox="0 0 120 120" fill="none" xmlns="http://www.w3.org/2000/svg">
<g clip-path="url(#clip0_1663_936)">
<path d="M99.965 45.54C101.88 47.54 103.4 49.855 104.43 52.38C106.507 57.4502 106.518 63.132 104.46 68.21C103.426 70.7552 101.921 73.0825 100.025 75.07C96.5958 78.6701 92.9058 82.0125 88.9851 85.07C85.035 88.1512 80.8656 90.9402 76.51 93.415C67.7097 98.3999 58.2449 102.107 48.4001 104.425C43.3193 105.636 37.9699 104.916 33.39 102.405C31.1605 101.18 29.1865 99.5386 27.575 97.57C25.9962 95.6334 24.8153 93.4041 24.1001 91.01C18.1051 71.5 18.99 49.45 24.77 29.86C27.815 19.575 37.985 13.115 48.455 15.49C67.855 19.89 86.055 31.225 99.965 45.54Z" stroke="#00DC72" stroke-width="2" stroke-linecap="round" stroke-linejoin="round"/>
<path d="M70.2204 65.1702C73.5704 62.6452 73.5704 57.7252 70.2204 55.1202C67.8334 53.228 65.332 51.4847 62.7304 49.9002C60.1167 48.3026 57.4121 46.8585 54.6304 45.5752C50.7804 43.8252 46.4804 46.2702 45.8654 50.4402C44.9198 56.7056 44.7518 63.0637 45.3654 69.3702C45.4482 70.3428 45.7609 71.2819 46.2779 72.1099C46.7948 72.9379 47.501 73.6313 48.3385 74.1327C49.176 74.6342 50.1206 74.9295 51.0946 74.9943C52.0685 75.0591 53.044 74.8914 53.9404 74.5052C56.8489 73.3085 59.678 71.9274 62.4104 70.3702C65.1229 68.8159 67.7317 67.0873 70.2204 65.1952V65.1702Z" stroke="#00DC72" stroke-width="2" stroke-linecap="round" stroke-linejoin="round"/>
</g>
<defs>
<clipPath id="clip0_1663_936">
<rect width="120" height="120" fill="white"/>
</clipPath>
</defs>
</svg>
