<svg width="120" height="120" viewBox="0 0 120 120" fill="none" xmlns="http://www.w3.org/2000/svg">
<g clip-path="url(#clip0_1663_844)">
<path d="M100 20H60C49.3913 20 39.2172 24.2143 31.7157 31.7157C24.2143 39.2172 20 49.3913 20 60C20 70.6087 24.2143 80.7828 31.7157 88.2843C39.2172 95.7857 49.3913 100 60 100H100C100 89.3913 95.7857 79.2172 88.2843 71.7157C80.7828 64.2143 70.6087 60 60 60C70.6087 60 80.7828 55.7857 88.2843 48.2843C95.7857 40.7828 100 30.6087 100 20Z" stroke="#00DC72" stroke-width="2" stroke-linecap="round" stroke-linejoin="round"/>
<path d="M20 60H60" stroke="#00DC72" stroke-width="2" stroke-linecap="round" stroke-linejoin="round"/>
<path d="M60 20V100" stroke="#00DC72" stroke-width="2" stroke-linecap="round" stroke-linejoin="round"/>
</g>
<defs>
<clipPath id="clip0_1663_844">
<rect width="120" height="120" fill="white"/>
</clipPath>
</defs>
</svg>
