<svg width="32" height="33" viewBox="0 0 32 33" fill="none" xmlns="http://www.w3.org/2000/svg">
<g clip-path="url(#clip0_1632_1663)">
<path d="M15.9998 6.83334C21.2573 6.83334 25.738 9.77794 29.3552 15.8734V15.8744L29.6238 16.3372L29.6423 16.3783L29.6541 16.4105L29.6599 16.4417L29.6658 16.4925V16.5179L29.6589 16.5687C29.6578 16.574 29.6564 16.5791 29.655 16.5843L29.6375 16.6331L29.6218 16.6654L29.613 16.6829C26.1498 22.7345 21.8736 25.8195 16.8757 26.139L16.3894 26.1615L15.9939 26.1654C10.6089 26.163 6.03832 23.0724 2.37769 16.6654C2.34898 16.6151 2.3338 16.5582 2.33374 16.5003C2.33374 16.4423 2.34892 16.3847 2.37769 16.3343C6.03963 9.92514 10.6123 6.83342 15.9998 6.83334ZM15.9998 11.5003C14.6739 11.5004 13.4022 12.0267 12.4646 12.9642C11.5269 13.9019 10.9998 15.1742 10.9998 16.5003C10.9998 17.8263 11.527 19.0979 12.4646 20.0355C13.4022 20.9731 14.6738 21.5003 15.9998 21.5003C17.3258 21.5003 18.5982 20.9732 19.5359 20.0355C20.4734 19.0979 20.9997 17.8262 20.9998 16.5003C20.9998 15.1743 20.4735 13.9019 19.5359 12.9642C18.5982 12.0265 17.3258 11.5003 15.9998 11.5003Z" stroke="black" stroke-width="2"/>
</g>
<defs>
<clipPath id="clip0_1632_1663">
<rect width="32" height="32" fill="white" transform="translate(0 0.5)"/>
</clipPath>
</defs>
</svg>
