<svg width="120" height="120" viewBox="0 0 120 120" fill="none" xmlns="http://www.w3.org/2000/svg">
<g clip-path="url(#clip0_1663_775)">
<path d="M104.7 65.225C105.759 56.1663 104.04 46.9998 99.7716 38.9399C95.5033 30.88 88.8866 24.3073 80.7985 20.0928C72.7103 15.8783 63.5325 14.2209 54.4811 15.3402C45.4298 16.4596 36.9321 20.3028 30.1143 26.3606C23.2965 32.4185 18.4803 40.4049 16.3039 49.2618C14.1276 58.1186 14.6938 67.4277 17.9275 75.9555C21.1613 84.4833 26.9099 91.8272 34.4117 97.0141C41.9135 102.201 50.8142 104.986 59.9346 105" stroke="#00DC72" stroke-width="2" stroke-linecap="round" stroke-linejoin="round"/>
<path d="M18 45H102" stroke="#00DC72" stroke-width="2" stroke-linecap="round" stroke-linejoin="round"/>
<path d="M18 75H65" stroke="#00DC72" stroke-width="2" stroke-linecap="round" stroke-linejoin="round"/>
<path d="M57.5003 15C49.077 28.4981 44.6113 44.0893 44.6113 60C44.6113 75.9107 49.077 91.5019 57.5003 105" stroke="#00DC72" stroke-width="2" stroke-linecap="round" stroke-linejoin="round"/>
<path d="M62.5 15C72.0958 30.3693 76.5265 48.4039 75.145 66.47" stroke="#00DC72" stroke-width="2" stroke-linecap="round" stroke-linejoin="round"/>
<path d="M80 110L105 85" stroke="#00DC72" stroke-width="2" stroke-linecap="round" stroke-linejoin="round"/>
<path d="M105 107.5V85H82.5" stroke="#00DC72" stroke-width="2" stroke-linecap="round" stroke-linejoin="round"/>
</g>
<defs>
<clipPath id="clip0_1663_775">
<rect width="120" height="120" fill="white"/>
</clipPath>
</defs>
</svg>
