<svg width="30" height="22" viewBox="0 0 30 22" fill="none" xmlns="http://www.w3.org/2000/svg">
<path d="M8.27206 5.60739C8.05147 2.01865 2.09559 0.336431 2.09559 0.336431C2.09559 0.336431 11.4706 -1.57009 11.8015 5.83167C12.1324 13.2334 11.9118 21.7118 11.9118 21.981C11.9118 22.2501 8.82353 19.6258 8.49265 16.5979C8.16177 13.5699 8.49265 9.19613 8.27206 5.60739Z" fill="#D80004"/>
<path d="M21.8 5.49135C22.0206 1.90261 27.9764 0.220395 27.9764 0.220395C27.9764 0.220395 18.6014 -1.68613 18.2706 5.71564C17.9397 13.1174 18.1603 21.5958 18.1603 21.8649C18.1603 22.1341 21.2485 19.5098 21.5794 16.4818C21.9103 13.4538 21.5794 9.0801 21.8 5.49135Z" fill="#D80004"/>
<path d="M11.9118 12.112H18.0882V15.7007H11.9118V12.112Z" fill="#D80004"/>
<path d="M5.51471 10.6927C6.50735 2.39374 0 3.40307 0 3.40307C0 3.40307 2.75735 4.07596 1.875 12.5992C0.992647 21.1224 7.5 21.9075 7.5 21.9075C7.5 21.9075 4.52206 18.9916 5.51471 10.6927Z" fill="#D80004"/>
<path d="M24.4853 10.2441C23.4926 1.94515 30 2.95448 30 2.95448C30 2.95448 27.2426 3.62737 28.125 12.1506C29.0074 20.6738 22.5 21.4589 22.5 21.4589C22.5 21.4589 25.4779 18.543 24.4853 10.2441Z" fill="#D80004"/>
</svg>
