<svg width="392" height="282" viewBox="0 0 392 282" fill="none" xmlns="http://www.w3.org/2000/svg">
<g opacity="0.2" clip-path="url(#clip0_1379_1948)">
<path d="M253.445 25.01C260.284 20.3348 262.038 11.0007 257.363 4.16176C252.688 -2.67722 243.354 -4.43132 236.515 0.243878L244.98 12.627L253.445 25.01ZM168.04 220.416C169.239 228.613 176.856 234.286 185.053 233.086C193.25 231.887 198.923 224.27 197.724 216.073L182.882 218.244L168.04 220.416ZM186.763 112.119L201.28 115.895L186.763 112.119ZM350.691 155.335C352.579 163.401 360.649 168.409 368.715 166.521C376.781 164.633 381.789 156.564 379.901 148.498L365.296 151.916L350.691 155.335ZM365.296 195.03L380.261 193.999C379.706 185.935 372.86 179.761 364.781 180.038C356.702 180.316 350.296 186.946 350.296 195.03H365.296ZM204.507 272.949C212.741 273.867 220.159 267.936 221.076 259.703C221.994 251.47 216.064 244.051 207.83 243.134L206.169 258.041L204.507 272.949ZM244.98 12.627L236.515 0.243878C224.248 8.62987 211.302 24.2832 200.183 42.6026C188.848 61.2775 178.531 84.1742 172.246 108.344L186.763 112.119L201.28 115.895C206.758 94.8314 215.847 74.6147 225.829 58.1681C236.027 41.366 246.307 29.8897 253.445 25.01L244.98 12.627ZM186.763 112.119L172.246 108.344C161.007 151.56 164.023 192.956 168.04 220.416L182.882 218.244L197.724 216.073C193.978 190.47 191.476 153.593 201.28 115.895L186.763 112.119ZM365.296 151.916L379.901 148.498C378.16 141.06 376.201 130.999 373.56 122.03C370.844 112.804 366.899 102.708 360.07 94.0951C352.96 85.1264 343.133 78.289 329.882 75.2649C317.04 72.3341 301.884 73.1826 284.017 77.6732L287.673 92.2208L291.329 106.768C306.451 102.968 316.523 102.987 323.207 104.513C329.484 105.945 333.484 108.85 336.561 112.732C339.921 116.97 342.525 122.835 344.782 130.502C347.114 138.426 348.551 146.191 350.691 155.335L365.296 151.916ZM287.673 92.2208L284.017 77.6732C262.176 83.1621 247.424 98.5264 238.722 116.743C230.123 134.745 226.992 156.22 228.06 176.739C229.128 197.273 234.463 218.104 244.091 234.921C253.682 251.673 268.561 266.013 289.027 269.511L291.554 254.725L294.081 239.939C285.438 238.462 277.03 232.075 270.126 220.015C263.259 208.021 258.892 191.957 258.019 175.181C257.146 158.391 259.837 142.142 265.792 129.674C271.645 117.421 280.179 109.57 291.329 106.768L287.673 92.2208ZM291.554 254.725L289.027 269.511C323.496 275.401 347.635 263.118 362.345 245.161C376.103 228.367 381.168 207.181 380.261 193.999L365.296 195.03L350.332 196.06C350.718 201.671 348.02 215.308 339.138 226.15C331.208 235.83 317.829 243.998 294.081 239.939L291.554 254.725ZM365.296 195.03H350.296C350.296 227.157 348.098 260.873 329.715 287.172C312.086 312.393 276.811 334.305 201.967 335.904L202.287 350.901L202.608 365.897C283.01 364.18 329.24 340.215 354.304 304.359C378.613 269.581 380.296 227.019 380.296 195.03H365.296ZM202.287 350.901L201.967 335.904C164.173 336.712 143.23 330.67 133.209 323.939C128.495 320.773 126.705 317.818 126.016 315.703C125.322 313.575 125.259 310.817 126.601 307.196C129.472 299.448 138.271 289.63 152.882 282.184C167.117 274.931 185.289 270.807 204.507 272.949L206.169 258.041L207.83 243.134C182.415 240.301 158.38 245.712 139.261 255.455C120.518 265.006 104.817 279.646 98.4704 296.771C95.2033 305.587 94.3521 315.369 97.4937 325.004C100.64 334.652 107.31 342.683 116.482 348.844C134.237 360.768 162.778 366.748 202.608 365.897L202.287 350.901Z" fill="black"/>
<path d="M50.9238 78.958C50.9238 78.958 41.0002 130.049 43.1615 165.185C45.3619 200.957 62.567 231.513 66.4484 241.462M120.785 221.564C120.785 221.564 109.141 171.818 116.903 125.388" stroke="black" stroke-width="30" stroke-linecap="round"/>
</g>
<defs>
<clipPath id="clip0_1379_1948">
<rect width="392" height="282" fill="white"/>
</clipPath>
</defs>
</svg>
